SplineFontDB: 3.2
FontName: SFSportsNightNS
FullName: SF Sports Night NS
FamilyName: SF Sports Night NS
Weight: Book
Copyright: v1.0 Created by ShyWedge, 1999.  (http://welcome.to/ShyFonts)
Version: 1.0
ItalicAngle: 0
UnderlinePosition: -143
UnderlineWidth: 20
Ascent: 720
Descent: 180
InvalidEm: 0
sfntRevision: 0x00010000
LayerCount: 2
Layer: 0 1 "Arri+AOgA-re" 1
Layer: 1 1 "Avant" 0
XUID: [1021 575 -28539027 10077]
StyleMap: 0x0040
FSType: 2
OS2Version: 1
OS2_WeightWidthSlopeOnly: 0
OS2_UseTypoMetrics: 0
CreationTime: 925743225
ModificationTime: 1750698975
PfmFamily: 81
TTFWeight: 400
TTFWidth: 5
LineGap: 0
VLineGap: 0
Panose: 0 0 4 0 0 0 0 0 0 0
OS2TypoAscent: 658
OS2TypoAOffset: 0
OS2TypoDescent: -100
OS2TypoDOffset: 0
OS2TypoLinegap: 0
OS2WinAscent: 658
OS2WinAOffset: 0
OS2WinDescent: 100
OS2WinDOffset: 0
HheadAscent: 700
HheadAOffset: 0
HheadDescent: -200
HheadDOffset: 0
OS2SubXSize: 630
OS2SubYSize: 585
OS2SubXOff: 0
OS2SubYOff: 129
OS2SupXSize: 630
OS2SupYSize: 585
OS2SupXOff: 0
OS2SupYOff: 408
OS2StrikeYSize: 45
OS2StrikeYPos: 233
OS2Vendor: 'MACR'
OS2CodePages: 00000001.00000000
OS2UnicodeRanges: 00000003.00000000.00000000.00000000
DEI: 91125
TtTable: prep
NPUSHB
 11
 8
 8
 7
 7
 6
 6
 1
 1
 0
 0
 1
SCANTYPE
PUSHW_1
 511
SCANCTRL
RCVT
ROUND[Grey]
WCVTP
RCVT
ROUND[Grey]
WCVTP
RCVT
ROUND[Grey]
WCVTP
RCVT
ROUND[Grey]
WCVTP
RCVT
ROUND[Grey]
WCVTP
PUSHB_4
 3
 2
 70
 0
CALL
PUSHB_4
 5
 4
 70
 0
CALL
PUSHB_2
 2
 2
RCVT
ROUND[Grey]
WCVTP
PUSHB_2
 4
 4
RCVT
ROUND[Grey]
WCVTP
EndTTInstrs
TtTable: fpgm
NPUSHB
 1
 0
FDEF
SROUND
RCVT
DUP
PUSHB_1
 3
CINDEX
RCVT
SWAP
SUB
ROUND[Grey]
RTG
SWAP
ROUND[Grey]
ADD
WCVTP
ENDF
EndTTInstrs
ShortTable: cvt  13
  0
  600
  180
  164
  180
  146
  176
  150
  74
  23138
  23138
  2
  4
EndShort
ShortTable: maxp 16
  1
  0
  92
  42
  3
  0
  0
  2
  8
  64
  10
  0
  98
  211
  1
  1
EndShort
LangName: 1033 "" "" "Regular" "SF Sports Night NS" "" "1.0"
Encoding: UnicodeBmp
UnicodeInterp: none
NameList: AGL For New Fonts

StartChar: .notdef
Encoding: 65536 -1 0
Width: 450
GlyphClass: 1
Flags: W
LayerCount: 2
Fore
SplineSet
56 0 m 1,0,-1
 56 700 l 1,1,-1
 394 700 l 1,2,-1
 394 0 l 1,3,-1
 56 0 l 1,0,-1
113 56 m 1,4,-1
 338 56 l 1,5,-1
 338 644 l 1,6,-1
 113 644 l 1,7,-1
 113 56 l 1,4,-1
EndSplineSet
Validated: 1
EndChar

StartChar: exclam
Encoding: 33 33 4
Width: 200
GlyphClass: 1
Flags: W
LayerCount: 2
Fore
SplineSet
228 600 m 1,0,-1
 157 200 l 1,1,-1
 7 200 l 1,2,-1
 78 600 l 1,3,-1
 228 600 l 1,0,-1
149 150 m 1,4,-1
 122 0 l 1,5,-1
 -28 0 l 1,6,-1
 -1 150 l 1,7,-1
 149 150 l 1,4,-1
EndSplineSet
Validated: 1
EndChar

StartChar: quotedbl
Encoding: 34 34 5
Width: 375
GlyphClass: 1
Flags: W
LayerCount: 2
Fore
SplineSet
372 600 m 1,0,-1
 346 450 l 1,1,-1
 253 350 l 1,2,-1
 271 450 l 1,3,-1
 196 450 l 1,4,-1
 222 600 l 1,5,-1
 372 600 l 1,0,-1
197 600 m 1,6,-1
 171 450 l 1,7,-1
 78 350 l 1,8,-1
 96 450 l 1,9,-1
 21 450 l 1,10,-1
 47 600 l 1,11,-1
 197 600 l 1,6,-1
EndSplineSet
Validated: 1
EndChar

StartChar: quotesingle
Encoding: 39 39 6
Width: 200
GlyphClass: 1
Flags: W
LayerCount: 2
Fore
SplineSet
197 600 m 1,0,-1
 171 450 l 1,1,-1
 78 350 l 1,2,-1
 96 450 l 1,3,-1
 21 450 l 1,4,-1
 47 600 l 1,5,-1
 197 600 l 1,0,-1
EndSplineSet
Validated: 1
EndChar

StartChar: parenleft
Encoding: 40 40 7
Width: 320
GlyphClass: 1
Flags: W
LayerCount: 2
Fore
SplineSet
357 650 m 1,0,1
 271 567 271 567 227.5 488 c 128,-1,2
 184 409 184 409 165 300 c 0,3,4
 154 238 154 238 154 188 c 0,5,6
 154 65 154 65 233 -50 c 1,7,-1
 83 -50 l 1,8,9
 13 66 13 66 13 183 c 0,10,11
 13 234 13 234 25 300 c 0,12,13
 44 408 44 408 84.5 486.5 c 128,-1,14
 125 565 125 565 207 650 c 1,15,-1
 357 650 l 1,0,1
EndSplineSet
Validated: 1
EndChar

StartChar: parenright
Encoding: 41 41 8
Width: 320
GlyphClass: 1
Flags: W
LayerCount: 2
Fore
SplineSet
307 417 m 0,0,1
 307 366 307 366 295 300 c 0,2,3
 276 192 276 192 235.5 113.5 c 128,-1,4
 195 35 195 35 113 -50 c 1,5,-1
 -37 -50 l 1,6,7
 49 33 49 33 92.5 112 c 128,-1,8
 136 191 136 191 155 300 c 0,9,10
 166 362 166 362 166 412 c 0,11,12
 166 535 166 535 87 650 c 1,13,-1
 237 650 l 1,14,15
 307 534 307 534 307 417 c 0,0,1
EndSplineSet
Validated: 1
EndChar

StartChar: comma
Encoding: 44 44 9
Width: 200
GlyphClass: 1
Flags: W
LayerCount: 2
Fore
SplineSet
197 150 m 1,0,-1
 171 0 l 1,1,-1
 78 -100 l 1,2,-1
 96 0 l 1,3,-1
 21 0 l 1,4,-1
 47 150 l 1,5,-1
 197 150 l 1,0,-1
EndSplineSet
Validated: 1
EndChar

StartChar: period
Encoding: 46 46 10
Width: 200
GlyphClass: 1
Flags: W
LayerCount: 2
Fore
SplineSet
188 150 m 1,0,-1
 162 0 l 1,1,-1
 12 0 l 1,2,-1
 38 150 l 1,3,-1
 188 150 l 1,0,-1
EndSplineSet
Validated: 1
EndChar

StartChar: slash
Encoding: 47 47 11
Width: 269
GlyphClass: 1
Flags: W
LayerCount: 2
Fore
SplineSet
328 632 m 1,0,-1
 84 -58 l 1,1,-1
 -59 -32 l 1,2,-1
 184 658 l 1,3,-1
 328 632 l 1,0,-1
EndSplineSet
Validated: 1
EndChar

StartChar: zero
Encoding: 48 48 12
Width: 600
GlyphClass: 1
Flags: W
LayerCount: 2
Fore
SplineSet
605 484 m 0,0,1
 605 472 605 472 603 460 c 2,2,-1
 547 140 l 2,3,4
 537 82 537 82 488.5 41 c 128,-1,5
 440 0 440 0 382 0 c 2,6,-1
 112 0 l 2,7,8
 61 0 61 0 28 33 c 128,-1,9
 -5 66 -5 66 -5 116 c 0,10,11
 -5 128 -5 128 -3 140 c 2,12,-1
 53 460 l 2,13,14
 63 518 63 518 111.5 559 c 128,-1,15
 160 600 160 600 218 600 c 2,16,-1
 488 600 l 2,17,18
 539 600 539 600 572 567 c 128,-1,19
 605 534 605 534 605 484 c 0,0,1
416 420 m 1,20,-1
 226 420 l 1,21,-1
 184 180 l 1,22,-1
 374 180 l 1,23,-1
 416 420 l 1,20,-1
EndSplineSet
Validated: 1
EndChar

StartChar: one
Encoding: 49 49 13
Width: 230
GlyphClass: 1
Flags: W
LayerCount: 2
Fore
SplineSet
258 600 m 1,0,-1
 152 0 l 1,1,-1
 -28 0 l 1,2,-1
 78 600 l 1,3,-1
 258 600 l 1,0,-1
EndSplineSet
Validated: 1
EndChar

StartChar: two
Encoding: 50 50 14
Width: 600
GlyphClass: 1
Flags: W
LayerCount: 2
Fore
SplineSet
605 484 m 0,0,1
 605 472 605 472 603 460 c 2,2,-1
 587 370 l 2,3,4
 577 312 577 312 529 271 c 128,-1,5
 481 230 481 230 423 230 c 2,6,-1
 193 230 l 1,7,-1
 184 180 l 1,8,-1
 554 180 l 1,9,-1
 522 0 l 1,10,-1
 -28 0 l 1,11,-1
 13 230 l 2,12,13
 23 288 23 288 71 329 c 128,-1,14
 119 370 119 370 177 370 c 2,15,-1
 407 370 l 1,16,-1
 416 420 l 1,17,-1
 46 420 l 1,18,-1
 78 600 l 1,19,-1
 488 600 l 2,20,21
 539 600 539 600 572 567 c 128,-1,22
 605 534 605 534 605 484 c 0,0,1
EndSplineSet
Validated: 1
EndChar

StartChar: three
Encoding: 51 51 15
Width: 600
GlyphClass: 1
Flags: W
LayerCount: 2
Fore
SplineSet
605 485 m 0,0,1
 605 472 605 472 603 460 c 2,2,-1
 587 370 l 2,3,4
 582 339 582 339 536 300 c 1,5,6
 564 266 564 266 564 240 c 0,7,8
 564 235 564 235 563 230 c 2,9,-1
 547 140 l 2,10,11
 537 82 537 82 488.5 41 c 128,-1,12
 440 0 440 0 382 0 c 2,13,-1
 -28 0 l 1,14,-1
 4 180 l 1,15,-1
 374 180 l 1,16,-1
 383 230 l 1,17,-1
 213 230 l 1,18,-1
 237 370 l 1,19,-1
 407 370 l 1,20,-1
 416 420 l 1,21,-1
 46 420 l 1,22,-1
 78 600 l 1,23,-1
 488 600 l 2,24,25
 539 600 539 600 572 567 c 128,-1,26
 605 534 605 534 605 485 c 0,0,1
EndSplineSet
Validated: 1
EndChar

StartChar: four
Encoding: 52 52 16
Width: 600
GlyphClass: 1
Flags: W
LayerCount: 2
Fore
SplineSet
628 600 m 1,0,-1
 522 0 l 1,1,-1
 342 0 l 1,2,-1
 383 230 l 1,3,-1
 13 230 l 1,4,-1
 78 600 l 1,5,-1
 258 600 l 1,6,-1
 217 370 l 1,7,-1
 407 370 l 1,8,-1
 448 600 l 1,9,-1
 628 600 l 1,0,-1
EndSplineSet
Validated: 1
EndChar

StartChar: five
Encoding: 53 53 17
Width: 600
GlyphClass: 1
Flags: W
LayerCount: 2
Fore
SplineSet
628 600 m 1,0,-1
 596 420 l 1,1,-1
 226 420 l 1,2,-1
 217 370 l 1,3,-1
 447 370 l 2,4,5
 499 370 499 370 532 337 c 128,-1,6
 565 304 565 304 565 255 c 0,7,8
 565 242 565 242 563 230 c 2,9,-1
 547 140 l 2,10,11
 537 82 537 82 488.5 41 c 128,-1,12
 440 0 440 0 382 0 c 2,13,-1
 -28 0 l 1,14,-1
 4 180 l 1,15,-1
 374 180 l 1,16,-1
 383 230 l 1,17,-1
 153 230 l 2,18,19
 101 230 101 230 68 263 c 128,-1,20
 35 296 35 296 35 346 c 0,21,22
 35 358 35 358 37 370 c 2,23,-1
 78 600 l 1,24,-1
 628 600 l 1,0,-1
EndSplineSet
Validated: 1
EndChar

StartChar: six
Encoding: 54 54 18
Width: 600
GlyphClass: 1
Flags: W
LayerCount: 2
Fore
SplineSet
628 600 m 1,0,-1
 596 420 l 1,1,-1
 226 420 l 1,2,-1
 217 370 l 1,3,-1
 447 370 l 2,4,5
 499 370 499 370 532 337 c 128,-1,6
 565 304 565 304 565 255 c 0,7,8
 565 242 565 242 563 230 c 2,9,-1
 547 140 l 2,10,11
 537 82 537 82 488.5 41 c 128,-1,12
 440 0 440 0 382 0 c 2,13,-1
 112 0 l 2,14,15
 61 0 61 0 28 33 c 128,-1,16
 -5 66 -5 66 -5 116 c 0,17,18
 -5 128 -5 128 -3 140 c 2,19,-1
 53 460 l 2,20,21
 63 518 63 518 111.5 559 c 128,-1,22
 160 600 160 600 218 600 c 2,23,-1
 628 600 l 1,0,-1
383 230 m 1,24,-1
 193 230 l 1,25,-1
 184 180 l 1,26,-1
 374 180 l 1,27,-1
 383 230 l 1,24,-1
EndSplineSet
Validated: 1
EndChar

StartChar: seven
Encoding: 55 55 19
Width: 600
GlyphClass: 1
Flags: W
LayerCount: 2
Fore
SplineSet
628 600 m 1,0,-1
 192 0 l 1,1,-1
 -28 0 l 1,2,-1
 276 420 l 1,3,-1
 46 420 l 1,4,-1
 78 600 l 1,5,-1
 628 600 l 1,0,-1
EndSplineSet
Validated: 1
EndChar

StartChar: eight
Encoding: 56 56 20
Width: 600
GlyphClass: 1
Flags: W
LayerCount: 2
Fore
SplineSet
605 485 m 0,0,1
 605 472 605 472 603 460 c 2,2,-1
 587 370 l 2,3,4
 582 339 582 339 536 300 c 1,5,6
 564 266 564 266 564 240 c 0,7,8
 564 235 564 235 563 230 c 2,9,-1
 547 140 l 2,10,11
 537 82 537 82 488.5 41 c 128,-1,12
 440 0 440 0 382 0 c 2,13,-1
 112 0 l 2,14,15
 61 0 61 0 28 33 c 128,-1,16
 -5 66 -5 66 -5 115 c 0,17,18
 -5 128 -5 128 -3 140 c 2,19,-1
 13 230 l 2,20,21
 18 261 18 261 64 300 c 1,22,23
 36 334 36 334 36 360 c 0,24,25
 36 365 36 365 37 370 c 2,26,-1
 53 460 l 2,27,28
 63 518 63 518 111.5 559 c 128,-1,29
 160 600 160 600 218 600 c 2,30,-1
 488 600 l 2,31,32
 539 600 539 600 572 567 c 128,-1,33
 605 534 605 534 605 485 c 0,0,1
416 420 m 1,34,-1
 226 420 l 1,35,-1
 217 370 l 1,36,-1
 407 370 l 1,37,-1
 416 420 l 1,34,-1
383 230 m 1,38,-1
 193 230 l 1,39,-1
 184 180 l 1,40,-1
 374 180 l 1,41,-1
 383 230 l 1,38,-1
EndSplineSet
Validated: 1
EndChar

StartChar: nine
Encoding: 57 57 21
Width: 600
GlyphClass: 1
Flags: W
LayerCount: 2
Fore
SplineSet
605 484 m 0,0,1
 605 472 605 472 603 460 c 2,2,-1
 547 140 l 2,3,4
 537 82 537 82 488.5 41 c 128,-1,5
 440 0 440 0 382 0 c 2,6,-1
 -28 0 l 1,7,-1
 4 180 l 1,8,-1
 374 180 l 1,9,-1
 383 230 l 1,10,-1
 153 230 l 2,11,12
 101 230 101 230 68 263 c 128,-1,13
 35 296 35 296 35 345 c 0,14,15
 35 358 35 358 37 370 c 2,16,-1
 53 460 l 2,17,18
 63 518 63 518 111.5 559 c 128,-1,19
 160 600 160 600 218 600 c 2,20,-1
 488 600 l 2,21,22
 539 600 539 600 572 567 c 128,-1,23
 605 534 605 534 605 484 c 0,0,1
416 420 m 1,24,-1
 226 420 l 1,25,-1
 217 370 l 1,26,-1
 407 370 l 1,27,-1
 416 420 l 1,24,-1
EndSplineSet
Validated: 1
EndChar

StartChar: colon
Encoding: 58 58 22
Width: 200
GlyphClass: 1
Flags: W
LayerCount: 2
Fore
SplineSet
212 420 m 1,0,-1
 186 270 l 1,1,-1
 36 270 l 1,2,-1
 62 420 l 1,3,-1
 212 420 l 1,0,-1
164 150 m 1,4,-1
 138 0 l 1,5,-1
 -12 0 l 1,6,-1
 14 150 l 1,7,-1
 164 150 l 1,4,-1
EndSplineSet
Validated: 1
EndChar

StartChar: semicolon
Encoding: 59 59 23
Width: 200
GlyphClass: 1
Flags: W
LayerCount: 2
Fore
SplineSet
221 420 m 1,0,-1
 194 270 l 1,1,-1
 44 270 l 1,2,-1
 71 420 l 1,3,-1
 221 420 l 1,0,-1
173 150 m 1,4,-1
 147 0 l 1,5,-1
 54 -100 l 1,6,-1
 72 0 l 1,7,-1
 -3 0 l 1,8,-1
 23 150 l 1,9,-1
 173 150 l 1,4,-1
EndSplineSet
Validated: 1
EndChar

StartChar: question
Encoding: 63 63 24
Width: 500
GlyphClass: 1
Flags: W
LayerCount: 2
Fore
SplineSet
509 501 m 0,0,1
 509 491 509 491 507 480 c 2,2,-1
 487 370 l 2,3,4
 479 320 479 320 437.5 285 c 128,-1,5
 396 250 396 250 346 250 c 2,6,-1
 166 250 l 1,7,-1
 157 200 l 1,8,-1
 7 200 l 1,9,-1
 21 280 l 2,10,11
 30 330 30 330 71.5 365 c 128,-1,12
 113 400 113 400 163 400 c 2,13,-1
 343 400 l 1,14,-1
 351 450 l 1,15,-1
 51 450 l 1,16,-1
 78 600 l 1,17,-1
 408 600 l 2,18,19
 452 600 452 600 480.5 572 c 128,-1,20
 509 544 509 544 509 501 c 0,0,1
149 150 m 1,21,-1
 122 0 l 1,22,-1
 -28 0 l 1,23,-1
 -1 150 l 1,24,-1
 149 150 l 1,21,-1
EndSplineSet
Validated: 1
EndChar

StartChar: A
Encoding: 65 65 25
Width: 570
GlyphClass: 1
Flags: W
LayerCount: 2
Fore
SplineSet
517 0 m 1,0,-1
 337 0 l 1,1,-1
 331 80 l 1,2,-1
 161 80 l 1,3,-1
 127 0 l 1,4,-1
 -53 0 l 1,5,-1
 203 600 l 1,6,-1
 473 600 l 1,7,-1
 517 0 l 1,0,-1
321 230 m 1,8,-1
 306 420 l 1,9,-1
 226 230 l 1,10,-1
 321 230 l 1,8,-1
EndSplineSet
Validated: 1
EndChar

StartChar: B
Encoding: 66 66 26
Width: 620
GlyphClass: 1
Flags: W
LayerCount: 2
Fore
SplineSet
625 484 m 0,0,1
 625 472 625 472 623 460 c 2,2,-1
 607 370 l 2,3,4
 602 339 602 339 556 300 c 1,5,6
 583 266 583 266 583 240 c 0,7,8
 583 235 583 235 583 230 c 2,9,-1
 567 140 l 2,10,11
 557 82 557 82 508.5 41 c 128,-1,12
 460 0 460 0 402 0 c 2,13,-1
 -28 0 l 1,14,-1
 78 600 l 1,15,-1
 508 600 l 2,16,17
 559 600 559 600 592 567 c 128,-1,18
 625 534 625 534 625 484 c 0,0,1
436 420 m 1,19,-1
 226 420 l 1,20,-1
 217 370 l 1,21,-1
 427 370 l 1,22,-1
 436 420 l 1,19,-1
403 230 m 1,23,-1
 193 230 l 1,24,-1
 184 180 l 1,25,-1
 394 180 l 1,26,-1
 403 230 l 1,23,-1
EndSplineSet
Validated: 1
EndChar

StartChar: C
Encoding: 67 67 27
Width: 600
GlyphClass: 1
Flags: W
LayerCount: 2
Fore
SplineSet
628 600 m 1,0,-1
 596 420 l 1,1,-1
 226 420 l 1,2,-1
 184 180 l 1,3,-1
 554 180 l 1,4,-1
 522 0 l 1,5,-1
 112 0 l 2,6,7
 61 0 61 0 28 33 c 128,-1,8
 -5 66 -5 66 -5 116 c 0,9,10
 -5 128 -5 128 -3 140 c 2,11,-1
 53 460 l 2,12,13
 63 518 63 518 111.5 559 c 128,-1,14
 160 600 160 600 218 600 c 2,15,-1
 628 600 l 1,0,-1
EndSplineSet
Validated: 1
EndChar

StartChar: D
Encoding: 68 68 28
Width: 600
GlyphClass: 1
Flags: W
LayerCount: 2
Fore
SplineSet
605 484 m 0,0,1
 605 472 605 472 603 460 c 2,2,-1
 547 140 l 2,3,4
 537 82 537 82 488.5 41 c 128,-1,5
 440 0 440 0 382 0 c 2,6,-1
 -28 0 l 1,7,-1
 78 600 l 1,8,-1
 488 600 l 2,9,10
 539 600 539 600 572 567 c 128,-1,11
 605 534 605 534 605 484 c 0,0,1
416 420 m 1,12,-1
 226 420 l 1,13,-1
 184 180 l 1,14,-1
 374 180 l 1,15,-1
 416 420 l 1,12,-1
EndSplineSet
Validated: 1
EndChar

StartChar: E
Encoding: 69 69 29
Width: 550
GlyphClass: 1
Flags: W
LayerCount: 2
Fore
SplineSet
578 600 m 1,0,-1
 546 420 l 1,1,-1
 226 420 l 1,2,-1
 217 370 l 1,3,-1
 537 370 l 1,4,-1
 513 230 l 1,5,-1
 193 230 l 1,6,-1
 184 180 l 1,7,-1
 504 180 l 1,8,-1
 472 0 l 1,9,-1
 -28 0 l 1,10,-1
 78 600 l 1,11,-1
 578 600 l 1,0,-1
EndSplineSet
Validated: 1
EndChar

StartChar: F
Encoding: 70 70 30
Width: 550
GlyphClass: 1
Flags: W
LayerCount: 2
Fore
SplineSet
578 600 m 1,0,-1
 546 420 l 1,1,-1
 226 420 l 1,2,-1
 217 370 l 1,3,-1
 537 370 l 1,4,-1
 513 230 l 1,5,-1
 193 230 l 1,6,-1
 152 0 l 1,7,-1
 -28 0 l 1,8,-1
 78 600 l 1,9,-1
 578 600 l 1,0,-1
EndSplineSet
Validated: 1
EndChar

StartChar: G
Encoding: 71 71 31
Width: 600
GlyphClass: 1
Flags: W
LayerCount: 2
Fore
SplineSet
628 600 m 1,0,-1
 596 420 l 1,1,-1
 226 420 l 1,2,-1
 184 180 l 1,3,-1
 374 180 l 1,4,-1
 383 230 l 1,5,-1
 303 230 l 1,6,-1
 327 370 l 1,7,-1
 587 370 l 1,8,-1
 547 140 l 2,9,10
 537 82 537 82 488.5 41 c 128,-1,11
 440 0 440 0 382 0 c 2,12,-1
 112 0 l 2,13,14
 61 0 61 0 28 33 c 128,-1,15
 -5 66 -5 66 -5 116 c 0,16,17
 -5 128 -5 128 -3 140 c 2,18,-1
 53 460 l 2,19,20
 63 518 63 518 111.5 559 c 128,-1,21
 160 600 160 600 218 600 c 2,22,-1
 628 600 l 1,0,-1
EndSplineSet
Validated: 1
EndChar

StartChar: H
Encoding: 72 72 32
Width: 600
GlyphClass: 1
Flags: W
LayerCount: 2
Fore
SplineSet
628 600 m 1,0,-1
 522 0 l 1,1,-1
 342 0 l 1,2,-1
 383 230 l 1,3,-1
 193 230 l 1,4,-1
 152 0 l 1,5,-1
 -28 0 l 1,6,-1
 78 600 l 1,7,-1
 258 600 l 1,8,-1
 217 370 l 1,9,-1
 407 370 l 1,10,-1
 448 600 l 1,11,-1
 628 600 l 1,0,-1
EndSplineSet
Validated: 1
EndChar

StartChar: I
Encoding: 73 73 33
Width: 230
GlyphClass: 1
Flags: W
LayerCount: 2
Fore
SplineSet
258 600 m 1,0,-1
 152 0 l 1,1,-1
 -28 0 l 1,2,-1
 78 600 l 1,3,-1
 258 600 l 1,0,-1
EndSplineSet
Validated: 1
EndChar

StartChar: J
Encoding: 74 74 34
Width: 600
GlyphClass: 1
Flags: W
LayerCount: 2
Fore
SplineSet
628 600 m 1,0,-1
 547 140 l 2,1,2
 537 82 537 82 488.5 41 c 128,-1,3
 440 0 440 0 382 0 c 2,4,-1
 112 0 l 2,5,6
 61 0 61 0 28 33 c 128,-1,7
 -5 66 -5 66 -5 116 c 0,8,9
 -5 128 -5 128 -3 140 c 2,10,-1
 13 230 l 1,11,-1
 193 230 l 1,12,-1
 184 180 l 1,13,-1
 374 180 l 1,14,-1
 448 600 l 1,15,-1
 628 600 l 1,0,-1
EndSplineSet
Validated: 1
EndChar

StartChar: K
Encoding: 75 75 35
Width: 575
GlyphClass: 1
Flags: W
LayerCount: 2
Fore
SplineSet
628 600 m 1,0,-1
 380 300 l 1,1,-1
 522 0 l 1,2,-1
 312 0 l 1,3,-1
 196 246 l 1,4,-1
 152 0 l 1,5,-1
 -28 0 l 1,6,-1
 78 600 l 1,7,-1
 258 600 l 1,8,-1
 214 354 l 1,9,-1
 418 600 l 1,10,-1
 628 600 l 1,0,-1
EndSplineSet
Validated: 1
EndChar

StartChar: L
Encoding: 76 76 36
Width: 550
GlyphClass: 1
Flags: W
LayerCount: 2
Fore
SplineSet
504 180 m 1,0,-1
 472 0 l 1,1,-1
 -28 0 l 1,2,-1
 78 600 l 1,3,-1
 258 600 l 1,4,-1
 184 180 l 1,5,-1
 504 180 l 1,0,-1
EndSplineSet
Validated: 1
EndChar

StartChar: M
Encoding: 77 77 37
Width: 700
GlyphClass: 1
Flags: W
LayerCount: 2
Fore
SplineSet
728 600 m 1,0,-1
 622 0 l 1,1,-1
 442 0 l 1,2,-1
 486 251 l 1,3,-1
 297 0 l 1,4,-1
 196 251 l 1,5,-1
 152 0 l 1,6,-1
 -28 0 l 1,7,-1
 78 600 l 1,8,-1
 258 600 l 1,9,-1
 359 349 l 1,10,-1
 548 600 l 1,11,-1
 728 600 l 1,0,-1
EndSplineSet
Validated: 1
EndChar

StartChar: N
Encoding: 78 78 38
Width: 600
GlyphClass: 1
Flags: W
LayerCount: 2
Fore
SplineSet
605 484 m 0,0,1
 605 472 605 472 603 460 c 2,2,-1
 522 0 l 1,3,-1
 342 0 l 1,4,-1
 416 420 l 1,5,-1
 226 420 l 1,6,-1
 152 0 l 1,7,-1
 -28 0 l 1,8,-1
 78 600 l 1,9,-1
 488 600 l 2,10,11
 539 600 539 600 572 567 c 128,-1,12
 605 534 605 534 605 484 c 0,0,1
EndSplineSet
Validated: 1
EndChar

StartChar: O
Encoding: 79 79 39
Width: 600
GlyphClass: 1
Flags: W
LayerCount: 2
Fore
SplineSet
605 484 m 0,0,1
 605 472 605 472 603 460 c 2,2,-1
 547 140 l 2,3,4
 537 82 537 82 488.5 41 c 128,-1,5
 440 0 440 0 382 0 c 2,6,-1
 112 0 l 2,7,8
 61 0 61 0 28 33 c 128,-1,9
 -5 66 -5 66 -5 116 c 0,10,11
 -5 128 -5 128 -3 140 c 2,12,-1
 53 460 l 2,13,14
 63 518 63 518 111.5 559 c 128,-1,15
 160 600 160 600 218 600 c 2,16,-1
 488 600 l 2,17,18
 539 600 539 600 572 567 c 128,-1,19
 605 534 605 534 605 484 c 0,0,1
416 420 m 1,20,-1
 226 420 l 1,21,-1
 184 180 l 1,22,-1
 374 180 l 1,23,-1
 416 420 l 1,20,-1
EndSplineSet
Validated: 1
EndChar

StartChar: P
Encoding: 80 80 40
Width: 600
GlyphClass: 1
Flags: W
LayerCount: 2
Fore
SplineSet
605 484 m 0,0,1
 605 472 605 472 603 460 c 2,2,-1
 587 370 l 2,3,4
 577 312 577 312 529 271 c 128,-1,5
 481 230 481 230 423 230 c 2,6,-1
 193 230 l 1,7,-1
 152 0 l 1,8,-1
 -28 0 l 1,9,-1
 78 600 l 1,10,-1
 488 600 l 2,11,12
 539 600 539 600 572 567 c 128,-1,13
 605 534 605 534 605 484 c 0,0,1
416 420 m 1,14,-1
 226 420 l 1,15,-1
 217 370 l 1,16,-1
 407 370 l 1,17,-1
 416 420 l 1,14,-1
EndSplineSet
Validated: 1
EndChar

StartChar: Q
Encoding: 81 81 41
Width: 650
GlyphClass: 1
Flags: W
LayerCount: 2
Fore
SplineSet
605 484 m 0,0,1
 605 472 605 472 603 460 c 2,2,-1
 554 180 l 1,3,-1
 604 180 l 1,4,-1
 572 0 l 1,5,-1
 112 0 l 2,6,7
 61 0 61 0 28 33 c 128,-1,8
 -5 66 -5 66 -5 116 c 0,9,10
 -5 128 -5 128 -3 140 c 2,11,-1
 53 460 l 2,12,13
 63 518 63 518 111.5 559 c 128,-1,14
 160 600 160 600 218 600 c 2,15,-1
 488 600 l 2,16,17
 539 600 539 600 572 567 c 128,-1,18
 605 534 605 534 605 484 c 0,0,1
416 420 m 1,19,-1
 226 420 l 1,20,-1
 184 180 l 1,21,-1
 374 180 l 1,22,-1
 416 420 l 1,19,-1
EndSplineSet
Validated: 1
EndChar

StartChar: R
Encoding: 82 82 42
Width: 600
GlyphClass: 1
Flags: W
LayerCount: 2
Fore
SplineSet
605 484 m 0,0,1
 605 472 605 472 603 460 c 2,2,-1
 587 370 l 2,3,4
 582 339 582 339 536 300 c 1,5,6
 563 266 563 266 563 240 c 0,7,8
 563 235 563 235 563 230 c 2,9,-1
 522 0 l 1,10,-1
 342 0 l 1,11,-1
 383 230 l 1,12,-1
 193 230 l 1,13,-1
 152 0 l 1,14,-1
 -28 0 l 1,15,-1
 78 600 l 1,16,-1
 488 600 l 2,17,18
 539 600 539 600 572 567 c 128,-1,19
 605 534 605 534 605 484 c 0,0,1
416 420 m 1,20,-1
 226 420 l 1,21,-1
 217 370 l 1,22,-1
 407 370 l 1,23,-1
 416 420 l 1,20,-1
EndSplineSet
Validated: 1
EndChar

StartChar: S
Encoding: 83 83 43
Width: 600
GlyphClass: 1
Flags: W
LayerCount: 2
Fore
SplineSet
628 600 m 1,0,-1
 596 420 l 1,1,-1
 226 420 l 1,2,-1
 217 370 l 1,3,-1
 447 370 l 2,4,5
 499 370 499 370 532 337 c 128,-1,6
 565 304 565 304 565 254 c 0,7,8
 565 242 565 242 563 230 c 2,9,-1
 547 140 l 2,10,11
 537 82 537 82 488.5 41 c 128,-1,12
 440 0 440 0 382 0 c 2,13,-1
 -28 0 l 1,14,-1
 4 180 l 1,15,-1
 374 180 l 1,16,-1
 383 230 l 1,17,-1
 153 230 l 2,18,19
 101 230 101 230 68 263 c 128,-1,20
 35 296 35 296 35 345 c 0,21,22
 35 358 35 358 37 370 c 2,23,-1
 53 460 l 2,24,25
 63 518 63 518 111.5 559 c 128,-1,26
 160 600 160 600 218 600 c 2,27,-1
 628 600 l 1,0,-1
EndSplineSet
Validated: 1
EndChar

StartChar: T
Encoding: 84 84 44
Width: 600
GlyphClass: 1
Flags: W
LayerCount: 2
Fore
SplineSet
628 600 m 1,0,-1
 596 420 l 1,1,-1
 411 420 l 1,2,-1
 337 0 l 1,3,-1
 157 0 l 1,4,-1
 231 420 l 1,5,-1
 46 420 l 1,6,-1
 78 600 l 1,7,-1
 628 600 l 1,0,-1
EndSplineSet
Validated: 1
EndChar

StartChar: U
Encoding: 85 85 45
Width: 600
GlyphClass: 1
Flags: W
LayerCount: 2
Fore
SplineSet
628 600 m 1,0,-1
 547 140 l 2,1,2
 537 82 537 82 488.5 41 c 128,-1,3
 440 0 440 0 382 0 c 2,4,-1
 112 0 l 2,5,6
 61 0 61 0 28 33 c 128,-1,7
 -5 66 -5 66 -5 116 c 0,8,9
 -5 128 -5 128 -3 140 c 2,10,-1
 78 600 l 1,11,-1
 258 600 l 1,12,-1
 184 180 l 1,13,-1
 374 180 l 1,14,-1
 448 600 l 1,15,-1
 628 600 l 1,0,-1
EndSplineSet
Validated: 1
EndChar

StartChar: V
Encoding: 86 86 46
Width: 570
GlyphClass: 1
Flags: W
LayerCount: 2
Fore
SplineSet
623 600 m 1,0,-1
 367 0 l 1,1,-1
 97 0 l 1,2,-1
 53 600 l 1,3,-1
 233 600 l 1,4,-1
 264 180 l 1,5,-1
 443 600 l 1,6,-1
 623 600 l 1,0,-1
EndSplineSet
Validated: 1
EndChar

StartChar: W
Encoding: 87 87 47
Width: 880
GlyphClass: 1
Flags: W
LayerCount: 2
Fore
SplineSet
933 600 m 1,0,-1
 677 0 l 1,1,-1
 447 0 l 1,2,-1
 429 240 l 1,3,-1
 327 0 l 1,4,-1
 97 0 l 1,5,-1
 53 600 l 1,6,-1
 233 600 l 1,7,-1
 258 260 l 1,8,-1
 403 600 l 1,9,-1
 583 600 l 1,10,-1
 608 260 l 1,11,-1
 753 600 l 1,12,-1
 933 600 l 1,0,-1
EndSplineSet
Validated: 1
EndChar

StartChar: X
Encoding: 88 88 48
Width: 600
GlyphClass: 1
Flags: W
LayerCount: 2
Fore
SplineSet
653 600 m 1,0,-1
 405 300 l 1,1,-1
 547 0 l 1,2,-1
 337 0 l 1,3,-1
 271 138 l 1,4,-1
 157 0 l 1,5,-1
 -53 0 l 1,6,-1
 195 300 l 1,7,-1
 53 600 l 1,8,-1
 263 600 l 1,9,-1
 329 462 l 1,10,-1
 443 600 l 1,11,-1
 653 600 l 1,0,-1
EndSplineSet
Validated: 1
EndChar

StartChar: Y
Encoding: 89 89 49
Width: 600
GlyphClass: 1
Flags: W
LayerCount: 2
Fore
SplineSet
653 600 m 1,0,-1
 386 280 l 1,1,-1
 337 0 l 1,2,-1
 157 0 l 1,3,-1
 206 280 l 1,4,-1
 53 600 l 1,5,-1
 263 600 l 1,6,-1
 329 462 l 1,7,-1
 443 600 l 1,8,-1
 653 600 l 1,0,-1
EndSplineSet
Validated: 1
EndChar

StartChar: Z
Encoding: 90 90 50
Width: 600
GlyphClass: 1
Flags: W
LayerCount: 2
Fore
SplineSet
628 600 m 1,0,-1
 324 180 l 1,1,-1
 554 180 l 1,2,-1
 522 0 l 1,3,-1
 -28 0 l 1,4,-1
 276 420 l 1,5,-1
 46 420 l 1,6,-1
 78 600 l 1,7,-1
 628 600 l 1,0,-1
EndSplineSet
Validated: 1
EndChar

StartChar: bracketleft
Encoding: 91 91 51
Width: 300
GlyphClass: 1
Flags: W
LayerCount: 2
Fore
SplineSet
337 650 m 1,0,-1
 310 500 l 1,1,-1
 210 500 l 1,2,-1
 140 100 l 1,3,-1
 240 100 l 1,4,-1
 213 -50 l 1,5,-1
 -37 -50 l 1,6,-1
 87 650 l 1,7,-1
 337 650 l 1,0,-1
EndSplineSet
Validated: 1
EndChar

StartChar: backslash
Encoding: 92 92 52
Width: 269
GlyphClass: 1
Flags: W
LayerCount: 2
Fore
SplineSet
211 658 m 1,0,-1
 210 -32 l 1,1,-1
 59 -58 l 1,2,-1
 59 632 l 1,3,-1
 211 658 l 1,0,-1
EndSplineSet
Validated: 1
EndChar

StartChar: bracketright
Encoding: 93 93 53
Width: 300
GlyphClass: 1
Flags: W
LayerCount: 2
Fore
SplineSet
337 650 m 1,0,-1
 213 -50 l 1,1,-1
 -37 -50 l 1,2,-1
 -10 100 l 1,3,-1
 90 100 l 1,4,-1
 160 500 l 1,5,-1
 60 500 l 1,6,-1
 87 650 l 1,7,-1
 337 650 l 1,0,-1
EndSplineSet
Validated: 1
EndChar

StartChar: a
Encoding: 97 97 54
Width: 570
GlyphClass: 1
Flags: W
LayerCount: 2
Fore
SplineSet
517 0 m 1,0,-1
 337 0 l 1,1,-1
 331 80 l 1,2,-1
 161 80 l 1,3,-1
 127 0 l 1,4,-1
 -53 0 l 1,5,-1
 203 600 l 1,6,-1
 473 600 l 1,7,-1
 517 0 l 1,0,-1
321 230 m 1,8,-1
 306 420 l 1,9,-1
 226 230 l 1,10,-1
 321 230 l 1,8,-1
EndSplineSet
Validated: 1
EndChar

StartChar: b
Encoding: 98 98 55
Width: 620
GlyphClass: 1
Flags: W
LayerCount: 2
Fore
SplineSet
625 484 m 0,0,1
 625 472 625 472 623 460 c 2,2,-1
 607 370 l 2,3,4
 602 339 602 339 556 300 c 1,5,6
 583 266 583 266 583 240 c 0,7,8
 583 235 583 235 583 230 c 2,9,-1
 567 140 l 2,10,11
 557 82 557 82 508.5 41 c 128,-1,12
 460 0 460 0 402 0 c 2,13,-1
 -28 0 l 1,14,-1
 78 600 l 1,15,-1
 508 600 l 2,16,17
 559 600 559 600 592 567 c 128,-1,18
 625 534 625 534 625 484 c 0,0,1
436 420 m 1,19,-1
 226 420 l 1,20,-1
 217 370 l 1,21,-1
 427 370 l 1,22,-1
 436 420 l 1,19,-1
403 230 m 1,23,-1
 193 230 l 1,24,-1
 184 180 l 1,25,-1
 394 180 l 1,26,-1
 403 230 l 1,23,-1
EndSplineSet
Validated: 1
EndChar

StartChar: c
Encoding: 99 99 56
Width: 600
GlyphClass: 1
Flags: W
LayerCount: 2
Fore
SplineSet
628 600 m 1,0,-1
 596 420 l 1,1,-1
 226 420 l 1,2,-1
 184 180 l 1,3,-1
 554 180 l 1,4,-1
 522 0 l 1,5,-1
 112 0 l 2,6,7
 61 0 61 0 28 33 c 128,-1,8
 -5 66 -5 66 -5 116 c 0,9,10
 -5 128 -5 128 -3 140 c 2,11,-1
 53 460 l 2,12,13
 63 518 63 518 111.5 559 c 128,-1,14
 160 600 160 600 218 600 c 2,15,-1
 628 600 l 1,0,-1
EndSplineSet
Validated: 1
EndChar

StartChar: d
Encoding: 100 100 57
Width: 600
GlyphClass: 1
Flags: W
LayerCount: 2
Fore
SplineSet
605 484 m 0,0,1
 605 472 605 472 603 460 c 2,2,-1
 547 140 l 2,3,4
 537 82 537 82 488.5 41 c 128,-1,5
 440 0 440 0 382 0 c 2,6,-1
 -28 0 l 1,7,-1
 78 600 l 1,8,-1
 488 600 l 2,9,10
 539 600 539 600 572 567 c 128,-1,11
 605 534 605 534 605 484 c 0,0,1
416 420 m 1,12,-1
 226 420 l 1,13,-1
 184 180 l 1,14,-1
 374 180 l 1,15,-1
 416 420 l 1,12,-1
EndSplineSet
Validated: 1
EndChar

StartChar: e
Encoding: 101 101 58
Width: 550
GlyphClass: 1
Flags: W
LayerCount: 2
Fore
SplineSet
578 600 m 5,0,-1
 546 420 l 5,1,-1
 226 420 l 5,2,-1
 217 370 l 5,3,-1
 537 370 l 5,4,-1
 513 230 l 5,5,-1
 193 230 l 5,6,-1
 184 180 l 5,7,-1
 504 180 l 5,8,-1
 472 0 l 5,9,-1
 -28 0 l 5,10,-1
 78 600 l 5,11,-1
 578 600 l 5,0,-1
EndSplineSet
Validated: 1
EndChar

StartChar: f
Encoding: 102 102 59
Width: 550
GlyphClass: 1
Flags: W
LayerCount: 2
Fore
SplineSet
578 600 m 1,0,-1
 546 420 l 1,1,-1
 226 420 l 1,2,-1
 217 370 l 1,3,-1
 537 370 l 1,4,-1
 513 230 l 1,5,-1
 193 230 l 1,6,-1
 152 0 l 1,7,-1
 -28 0 l 1,8,-1
 78 600 l 1,9,-1
 578 600 l 1,0,-1
EndSplineSet
Validated: 1
EndChar

StartChar: g
Encoding: 103 103 60
Width: 600
GlyphClass: 1
Flags: W
LayerCount: 2
Fore
SplineSet
628 600 m 1,0,-1
 596 420 l 1,1,-1
 226 420 l 1,2,-1
 184 180 l 1,3,-1
 374 180 l 1,4,-1
 383 230 l 1,5,-1
 303 230 l 1,6,-1
 327 370 l 1,7,-1
 587 370 l 1,8,-1
 547 140 l 2,9,10
 537 82 537 82 488.5 41 c 128,-1,11
 440 0 440 0 382 0 c 2,12,-1
 112 0 l 2,13,14
 61 0 61 0 28 33 c 128,-1,15
 -5 66 -5 66 -5 116 c 0,16,17
 -5 128 -5 128 -3 140 c 2,18,-1
 53 460 l 2,19,20
 63 518 63 518 111.5 559 c 128,-1,21
 160 600 160 600 218 600 c 2,22,-1
 628 600 l 1,0,-1
EndSplineSet
Validated: 1
EndChar

StartChar: h
Encoding: 104 104 61
Width: 600
GlyphClass: 1
Flags: W
LayerCount: 2
Fore
SplineSet
628 600 m 1,0,-1
 522 0 l 1,1,-1
 342 0 l 1,2,-1
 383 230 l 1,3,-1
 193 230 l 1,4,-1
 152 0 l 1,5,-1
 -28 0 l 1,6,-1
 78 600 l 1,7,-1
 258 600 l 1,8,-1
 217 370 l 1,9,-1
 407 370 l 1,10,-1
 448 600 l 1,11,-1
 628 600 l 1,0,-1
EndSplineSet
Validated: 1
EndChar

StartChar: i
Encoding: 105 105 62
Width: 230
GlyphClass: 1
Flags: W
LayerCount: 2
Fore
SplineSet
258 600 m 1,0,-1
 152 0 l 1,1,-1
 -28 0 l 1,2,-1
 78 600 l 1,3,-1
 258 600 l 1,0,-1
EndSplineSet
Validated: 1
EndChar

StartChar: j
Encoding: 106 106 63
Width: 600
GlyphClass: 1
Flags: W
LayerCount: 2
Fore
SplineSet
628 600 m 1,0,-1
 547 140 l 2,1,2
 537 82 537 82 488.5 41 c 128,-1,3
 440 0 440 0 382 0 c 2,4,-1
 112 0 l 2,5,6
 61 0 61 0 28 33 c 128,-1,7
 -5 66 -5 66 -5 116 c 0,8,9
 -5 128 -5 128 -3 140 c 2,10,-1
 13 230 l 1,11,-1
 193 230 l 1,12,-1
 184 180 l 1,13,-1
 374 180 l 1,14,-1
 448 600 l 1,15,-1
 628 600 l 1,0,-1
EndSplineSet
Validated: 1
EndChar

StartChar: k
Encoding: 107 107 64
Width: 575
GlyphClass: 1
Flags: W
LayerCount: 2
Fore
SplineSet
628 600 m 1,0,-1
 380 300 l 1,1,-1
 522 0 l 1,2,-1
 312 0 l 1,3,-1
 196 246 l 1,4,-1
 152 0 l 1,5,-1
 -28 0 l 1,6,-1
 78 600 l 1,7,-1
 258 600 l 1,8,-1
 214 354 l 1,9,-1
 418 600 l 1,10,-1
 628 600 l 1,0,-1
EndSplineSet
Validated: 1
EndChar

StartChar: l
Encoding: 108 108 65
Width: 550
GlyphClass: 1
Flags: W
LayerCount: 2
Fore
SplineSet
504 180 m 1,0,-1
 472 0 l 1,1,-1
 -28 0 l 1,2,-1
 78 600 l 1,3,-1
 258 600 l 1,4,-1
 184 180 l 1,5,-1
 504 180 l 1,0,-1
EndSplineSet
Validated: 1
EndChar

StartChar: m
Encoding: 109 109 66
Width: 700
GlyphClass: 1
Flags: W
LayerCount: 2
Fore
SplineSet
728 600 m 1,0,-1
 622 0 l 1,1,-1
 442 0 l 1,2,-1
 486 251 l 1,3,-1
 297 0 l 1,4,-1
 196 251 l 1,5,-1
 152 0 l 1,6,-1
 -28 0 l 1,7,-1
 78 600 l 1,8,-1
 258 600 l 1,9,-1
 359 349 l 1,10,-1
 548 600 l 1,11,-1
 728 600 l 1,0,-1
EndSplineSet
Validated: 1
EndChar

StartChar: n
Encoding: 110 110 67
Width: 600
GlyphClass: 1
Flags: W
LayerCount: 2
Fore
SplineSet
605 484 m 0,0,1
 605 472 605 472 603 460 c 2,2,-1
 522 0 l 1,3,-1
 342 0 l 1,4,-1
 416 420 l 1,5,-1
 226 420 l 1,6,-1
 152 0 l 1,7,-1
 -28 0 l 1,8,-1
 78 600 l 1,9,-1
 488 600 l 2,10,11
 539 600 539 600 572 567 c 128,-1,12
 605 534 605 534 605 484 c 0,0,1
EndSplineSet
Validated: 1
EndChar

StartChar: o
Encoding: 111 111 68
Width: 600
GlyphClass: 1
Flags: W
LayerCount: 2
Fore
SplineSet
605 484 m 0,0,1
 605 472 605 472 603 460 c 2,2,-1
 547 140 l 2,3,4
 537 82 537 82 488.5 41 c 128,-1,5
 440 0 440 0 382 0 c 2,6,-1
 112 0 l 2,7,8
 61 0 61 0 28 33 c 128,-1,9
 -5 66 -5 66 -5 116 c 0,10,11
 -5 128 -5 128 -3 140 c 2,12,-1
 53 460 l 2,13,14
 63 518 63 518 111.5 559 c 128,-1,15
 160 600 160 600 218 600 c 2,16,-1
 488 600 l 2,17,18
 539 600 539 600 572 567 c 128,-1,19
 605 534 605 534 605 484 c 0,0,1
416 420 m 1,20,-1
 226 420 l 1,21,-1
 184 180 l 1,22,-1
 374 180 l 1,23,-1
 416 420 l 1,20,-1
EndSplineSet
Validated: 1
EndChar

StartChar: p
Encoding: 112 112 69
Width: 600
GlyphClass: 1
Flags: W
LayerCount: 2
Fore
SplineSet
605 484 m 0,0,1
 605 472 605 472 603 460 c 2,2,-1
 587 370 l 2,3,4
 577 312 577 312 529 271 c 128,-1,5
 481 230 481 230 423 230 c 2,6,-1
 193 230 l 1,7,-1
 152 0 l 1,8,-1
 -28 0 l 1,9,-1
 78 600 l 1,10,-1
 488 600 l 2,11,12
 539 600 539 600 572 567 c 128,-1,13
 605 534 605 534 605 484 c 0,0,1
416 420 m 1,14,-1
 226 420 l 1,15,-1
 217 370 l 1,16,-1
 407 370 l 1,17,-1
 416 420 l 1,14,-1
EndSplineSet
Validated: 1
EndChar

StartChar: q
Encoding: 113 113 70
Width: 650
GlyphClass: 1
Flags: W
LayerCount: 2
Fore
SplineSet
605 484 m 0,0,1
 605 472 605 472 603 460 c 2,2,-1
 554 180 l 1,3,-1
 604 180 l 1,4,-1
 572 0 l 1,5,-1
 112 0 l 2,6,7
 61 0 61 0 28 33 c 128,-1,8
 -5 66 -5 66 -5 116 c 0,9,10
 -5 128 -5 128 -3 140 c 2,11,-1
 53 460 l 2,12,13
 63 518 63 518 111.5 559 c 128,-1,14
 160 600 160 600 218 600 c 2,15,-1
 488 600 l 2,16,17
 539 600 539 600 572 567 c 128,-1,18
 605 534 605 534 605 484 c 0,0,1
416 420 m 1,19,-1
 226 420 l 1,20,-1
 184 180 l 1,21,-1
 374 180 l 1,22,-1
 416 420 l 1,19,-1
EndSplineSet
Validated: 1
EndChar

StartChar: r
Encoding: 114 114 71
Width: 600
GlyphClass: 1
Flags: W
LayerCount: 2
Fore
SplineSet
605 484 m 0,0,1
 605 472 605 472 603 460 c 2,2,-1
 587 370 l 2,3,4
 582 339 582 339 536 300 c 1,5,6
 563 266 563 266 563 240 c 0,7,8
 563 235 563 235 563 230 c 2,9,-1
 522 0 l 1,10,-1
 342 0 l 1,11,-1
 383 230 l 1,12,-1
 193 230 l 1,13,-1
 152 0 l 1,14,-1
 -28 0 l 1,15,-1
 78 600 l 1,16,-1
 488 600 l 2,17,18
 539 600 539 600 572 567 c 128,-1,19
 605 534 605 534 605 484 c 0,0,1
416 420 m 1,20,-1
 226 420 l 1,21,-1
 217 370 l 1,22,-1
 407 370 l 1,23,-1
 416 420 l 1,20,-1
EndSplineSet
Validated: 1
EndChar

StartChar: s
Encoding: 115 115 72
Width: 600
GlyphClass: 1
Flags: W
LayerCount: 2
Fore
SplineSet
628 600 m 1,0,-1
 596 420 l 1,1,-1
 226 420 l 1,2,-1
 217 370 l 1,3,-1
 447 370 l 2,4,5
 499 370 499 370 532 337 c 128,-1,6
 565 304 565 304 565 254 c 0,7,8
 565 242 565 242 563 230 c 2,9,-1
 547 140 l 2,10,11
 537 82 537 82 488.5 41 c 128,-1,12
 440 0 440 0 382 0 c 2,13,-1
 -28 0 l 1,14,-1
 4 180 l 1,15,-1
 374 180 l 1,16,-1
 383 230 l 1,17,-1
 153 230 l 2,18,19
 101 230 101 230 68 263 c 128,-1,20
 35 296 35 296 35 345 c 0,21,22
 35 358 35 358 37 370 c 2,23,-1
 53 460 l 2,24,25
 63 518 63 518 111.5 559 c 128,-1,26
 160 600 160 600 218 600 c 2,27,-1
 628 600 l 1,0,-1
EndSplineSet
Validated: 1
EndChar

StartChar: t
Encoding: 116 116 73
Width: 600
GlyphClass: 1
Flags: W
LayerCount: 2
Fore
SplineSet
628 600 m 1,0,-1
 596 420 l 1,1,-1
 411 420 l 1,2,-1
 337 0 l 1,3,-1
 157 0 l 1,4,-1
 231 420 l 1,5,-1
 46 420 l 1,6,-1
 78 600 l 1,7,-1
 628 600 l 1,0,-1
EndSplineSet
Validated: 1
EndChar

StartChar: u
Encoding: 117 117 74
Width: 600
GlyphClass: 1
Flags: W
LayerCount: 2
Fore
SplineSet
628 600 m 1,0,-1
 547 140 l 2,1,2
 537 82 537 82 488.5 41 c 128,-1,3
 440 0 440 0 382 0 c 2,4,-1
 112 0 l 2,5,6
 61 0 61 0 28 33 c 128,-1,7
 -5 66 -5 66 -5 116 c 0,8,9
 -5 128 -5 128 -3 140 c 2,10,-1
 78 600 l 1,11,-1
 258 600 l 1,12,-1
 184 180 l 1,13,-1
 374 180 l 1,14,-1
 448 600 l 1,15,-1
 628 600 l 1,0,-1
EndSplineSet
Validated: 1
EndChar

StartChar: v
Encoding: 118 118 75
Width: 570
GlyphClass: 1
Flags: W
LayerCount: 2
Fore
SplineSet
623 600 m 1,0,-1
 367 0 l 1,1,-1
 97 0 l 1,2,-1
 53 600 l 1,3,-1
 233 600 l 1,4,-1
 264 180 l 1,5,-1
 443 600 l 1,6,-1
 623 600 l 1,0,-1
EndSplineSet
Validated: 1
EndChar

StartChar: w
Encoding: 119 119 76
Width: 880
GlyphClass: 1
Flags: W
LayerCount: 2
Fore
SplineSet
933 600 m 1,0,-1
 677 0 l 1,1,-1
 447 0 l 1,2,-1
 429 240 l 1,3,-1
 327 0 l 1,4,-1
 97 0 l 1,5,-1
 53 600 l 1,6,-1
 233 600 l 1,7,-1
 258 260 l 1,8,-1
 403 600 l 1,9,-1
 583 600 l 1,10,-1
 608 260 l 1,11,-1
 753 600 l 1,12,-1
 933 600 l 1,0,-1
EndSplineSet
Validated: 1
EndChar

StartChar: x
Encoding: 120 120 77
Width: 600
GlyphClass: 1
Flags: W
LayerCount: 2
Fore
SplineSet
653 600 m 1,0,-1
 405 300 l 1,1,-1
 547 0 l 1,2,-1
 337 0 l 1,3,-1
 271 138 l 1,4,-1
 157 0 l 1,5,-1
 -53 0 l 1,6,-1
 195 300 l 1,7,-1
 53 600 l 1,8,-1
 263 600 l 1,9,-1
 329 462 l 1,10,-1
 443 600 l 1,11,-1
 653 600 l 1,0,-1
EndSplineSet
Validated: 1
EndChar

StartChar: y
Encoding: 121 121 78
Width: 625
GlyphClass: 1
Flags: W
LayerCount: 2
Fore
SplineSet
653 600 m 1,0,-1
 386 280 l 1,1,-1
 337 0 l 1,2,-1
 157 0 l 1,3,-1
 206 280 l 1,4,-1
 53 600 l 1,5,-1
 263 600 l 1,6,-1
 329 462 l 1,7,-1
 443 600 l 1,8,-1
 653 600 l 1,0,-1
EndSplineSet
Validated: 1
EndChar

StartChar: z
Encoding: 122 122 79
Width: 600
GlyphClass: 1
Flags: W
LayerCount: 2
Fore
SplineSet
628 600 m 1,0,-1
 324 180 l 1,1,-1
 554 180 l 1,2,-1
 522 0 l 1,3,-1
 -28 0 l 1,4,-1
 276 420 l 1,5,-1
 46 420 l 1,6,-1
 78 600 l 1,7,-1
 628 600 l 1,0,-1
EndSplineSet
Validated: 1
EndChar

StartChar: braceleft
Encoding: 123 123 80
Width: 350
GlyphClass: 1
Flags: W
LayerCount: 2
Fore
SplineSet
387 650 m 1,0,-1
 360 500 l 1,1,-1
 260 500 l 1,2,-1
 234 350 l 2,3,4
 230 329 230 329 213 314.5 c 128,-1,5
 196 300 196 300 175 300 c 1,6,7
 193 300 193 300 205 288 c 128,-1,8
 217 276 217 276 217 259 c 0,9,10
 217 254 217 254 216 250 c 2,11,-1
 190 100 l 1,12,-1
 290 100 l 1,13,-1
 263 -50 l 1,14,-1
 133 -50 l 2,15,16
 89 -50 89 -50 61 -22 c 128,-1,17
 33 6 33 6 33 49 c 0,18,19
 33 59 33 59 34 70 c 2,20,-1
 64 240 l 2,21,22
 65 244 65 244 65 249 c 0,23,24
 65 267 65 267 53.5 278.5 c 128,-1,25
 42 290 42 290 23 290 c 1,26,-1
 32 340 l 1,27,28
 53 340 53 340 70.5 357.5 c 128,-1,29
 88 375 88 375 93 400 c 2,30,-1
 116 530 l 2,31,32
 124 580 124 580 165.5 615 c 128,-1,33
 207 650 207 650 257 650 c 2,34,-1
 387 650 l 1,0,-1
EndSplineSet
Validated: 1
EndChar

StartChar: bar
Encoding: 124 124 81
Width: 200
GlyphClass: 1
Flags: W
LayerCount: 2
Fore
SplineSet
237 650 m 1,0,-1
 113 -50 l 1,1,-1
 -37 -50 l 1,2,-1
 87 650 l 1,3,-1
 237 650 l 1,0,-1
EndSplineSet
Validated: 1
EndChar

StartChar: braceright
Encoding: 125 125 82
Width: 350
GlyphClass: 1
Flags: W
LayerCount: 2
Fore
SplineSet
332 340 m 1,0,-1
 323 290 l 1,1,2
 303 290 303 290 285.5 275.5 c 128,-1,3
 268 261 268 261 264 240 c 2,4,-1
 234 70 l 2,5,6
 226 20 226 20 184.5 -15 c 128,-1,7
 143 -50 143 -50 93 -50 c 2,8,-1
 -37 -50 l 1,9,-1
 -10 100 l 1,10,-1
 90 100 l 1,11,-1
 116 250 l 2,12,13
 120 271 120 271 137 285.5 c 128,-1,14
 154 300 154 300 175 300 c 1,15,16
 157 300 157 300 145 312 c 128,-1,17
 133 324 133 324 133 341 c 0,18,19
 133 346 133 346 134 350 c 2,20,-1
 160 500 l 1,21,-1
 60 500 l 1,22,-1
 87 650 l 1,23,-1
 217 650 l 2,24,25
 261 650 261 650 289 622 c 128,-1,26
 317 594 317 594 317 551 c 0,27,28
 317 541 317 541 316 530 c 2,29,-1
 293 400 l 2,30,31
 292 394 292 394 292 388 c 0,32,33
 292 367 292 367 303 353.5 c 128,-1,34
 314 340 314 340 332 340 c 1,0,-1
EndSplineSet
Validated: 1
EndChar

StartChar: exclamdown
Encoding: 161 161 83
Width: 200
GlyphClass: 1
Flags: W
LayerCount: 2
Fore
SplineSet
228 600 m 1,0,-1
 201 450 l 1,1,-1
 51 450 l 1,2,-1
 78 600 l 1,3,-1
 228 600 l 1,0,-1
193 400 m 1,4,-1
 122 0 l 1,5,-1
 -28 0 l 1,6,-1
 43 400 l 1,7,-1
 193 400 l 1,4,-1
EndSplineSet
Validated: 1
EndChar

StartChar: questiondown
Encoding: 191 191 84
Width: 500
GlyphClass: 1
Flags: W
LayerCount: 2
Fore
SplineSet
528 600 m 1,0,-1
 501 450 l 1,1,-1
 351 450 l 1,2,-1
 378 600 l 1,3,-1
 528 600 l 1,0,-1
493 400 m 1,4,-1
 479 320 l 2,5,6
 470 270 470 270 428.5 235 c 128,-1,7
 387 200 387 200 337 200 c 2,8,-1
 157 200 l 1,9,-1
 149 150 l 1,10,-1
 449 150 l 1,11,-1
 422 0 l 1,12,-1
 92 0 l 2,13,14
 48 0 48 0 19.5 28 c 128,-1,15
 -9 56 -9 56 -9 99 c 0,16,17
 -9 109 -9 109 -7 120 c 2,18,-1
 13 230 l 2,19,20
 21 280 21 280 62.5 315 c 128,-1,21
 104 350 104 350 154 350 c 2,22,-1
 334 350 l 1,23,-1
 343 400 l 1,24,-1
 493 400 l 1,4,-1
EndSplineSet
Validated: 1
EndChar

StartChar: quoteleft
Encoding: 8216 8216 85
Width: 200
GlyphClass: 1
Flags: W
LayerCount: 2
Fore
SplineSet
179 500 m 1,0,-1
 153 350 l 1,1,-1
 3 350 l 1,2,-1
 29 500 l 1,3,-1
 122 600 l 1,4,-1
 104 500 l 1,5,-1
 179 500 l 1,0,-1
EndSplineSet
Validated: 1
EndChar

StartChar: quoteright
Encoding: 8217 8217 86
Width: 200
GlyphClass: 1
Flags: W
LayerCount: 2
Fore
SplineSet
197 600 m 1,0,-1
 171 450 l 1,1,-1
 78 350 l 1,2,-1
 96 450 l 1,3,-1
 21 450 l 1,4,-1
 47 600 l 1,5,-1
 197 600 l 1,0,-1
EndSplineSet
Validated: 1
EndChar

StartChar: quotesinglbase
Encoding: 8218 8218 87
Width: 200
GlyphClass: 1
Flags: W
LayerCount: 2
Fore
SplineSet
197 150 m 1,0,-1
 171 0 l 1,1,-1
 78 -100 l 1,2,-1
 96 0 l 1,3,-1
 21 0 l 1,4,-1
 47 150 l 1,5,-1
 197 150 l 1,0,-1
EndSplineSet
Validated: 1
EndChar

StartChar: quotereversed
Encoding: 8219 8219 88
Width: 200
GlyphClass: 1
Flags: W
LayerCount: 2
Fore
SplineSet
197 600 m 1,0,-1
 171 450 l 1,1,-1
 96 450 l 1,2,-1
 78 350 l 1,3,-1
 21 450 l 1,4,-1
 47 600 l 1,5,-1
 197 600 l 1,0,-1
EndSplineSet
Validated: 1
EndChar

StartChar: quotedblleft
Encoding: 8220 8220 89
Width: 375
GlyphClass: 1
Flags: W
LayerCount: 2
Fore
SplineSet
354 500 m 1,0,-1
 328 350 l 1,1,-1
 178 350 l 1,2,-1
 204 500 l 1,3,-1
 297 600 l 1,4,-1
 279 500 l 1,5,-1
 354 500 l 1,0,-1
179 500 m 1,6,-1
 153 350 l 1,7,-1
 3 350 l 1,8,-1
 29 500 l 1,9,-1
 122 600 l 1,10,-1
 104 500 l 1,11,-1
 179 500 l 1,6,-1
EndSplineSet
Validated: 1
EndChar

StartChar: quotedblright
Encoding: 8221 8221 90
Width: 375
GlyphClass: 1
Flags: W
LayerCount: 2
Fore
SplineSet
372 600 m 1,0,-1
 346 450 l 1,1,-1
 253 350 l 1,2,-1
 271 450 l 1,3,-1
 196 450 l 1,4,-1
 222 600 l 1,5,-1
 372 600 l 1,0,-1
197 600 m 1,6,-1
 171 450 l 1,7,-1
 78 350 l 1,8,-1
 96 450 l 1,9,-1
 21 450 l 1,10,-1
 47 600 l 1,11,-1
 197 600 l 1,6,-1
EndSplineSet
Validated: 1
EndChar

StartChar: quotedblbase
Encoding: 8222 8222 91
Width: 375
GlyphClass: 1
Flags: W
LayerCount: 2
Fore
SplineSet
372 150 m 1,0,-1
 346 0 l 1,1,-1
 253 -100 l 1,2,-1
 271 0 l 1,3,-1
 196 0 l 1,4,-1
 222 150 l 1,5,-1
 372 150 l 1,0,-1
197 150 m 1,6,-1
 171 0 l 1,7,-1
 78 -100 l 1,8,-1
 96 0 l 1,9,-1
 21 0 l 1,10,-1
 47 150 l 1,11,-1
 197 150 l 1,6,-1
EndSplineSet
Validated: 1
EndChar

StartChar: eacute
Encoding: 233 233 92
Width: 550
Flags: WO
LayerCount: 2
Fore
SplineSet
259 646 m 29,0,-1
 265 683 l 29,1,-1
 607 742 l 29,2,-1
 588 648 l 28,3,-1
 259 646 l 29,0,-1
578 600 m 1,4,-1
 546 420 l 1,5,-1
 226 420 l 1,6,-1
 217 370 l 1,7,-1
 537 370 l 1,8,-1
 513 230 l 1,9,-1
 193 230 l 1,10,-1
 184 180 l 1,11,-1
 504 180 l 1,12,-1
 472 0 l 1,13,-1
 -28 0 l 1,14,-1
 78 600 l 1,15,-1
 578 600 l 1,4,-1
EndSplineSet
Validated: 1
EndChar

StartChar: egrave
Encoding: 232 232 93
Width: 550
Flags: W
LayerCount: 2
Fore
SplineSet
586 646 m 5,0,1
 264 648 264 648 264 648 c 4,2,-1
 283 742 l 5,3,-1
 592 683 l 5,4,-1
 586 646 l 5,0,1
578 600 m 1,5,-1
 546 420 l 1,6,-1
 226 420 l 1,7,-1
 217 370 l 1,8,-1
 537 370 l 1,9,-1
 513 230 l 1,10,-1
 193 230 l 1,11,-1
 184 180 l 1,12,-1
 504 180 l 1,13,-1
 472 0 l 1,14,-1
 -28 0 l 1,15,-1
 78 600 l 1,16,-1
 578 600 l 1,5,-1
EndSplineSet
Validated: 1
EndChar

StartChar: agrave
Encoding: 224 224 94
Width: 570
Flags: W
LayerCount: 2
Fore
SplineSet
473 646 m 5,0,1
 211 648 211 648 211 648 c 4,2,-1
 230 742 l 5,3,-1
 479 683 l 5,4,-1
 473 646 l 5,0,1
517 0 m 1,5,-1
 337 0 l 1,6,-1
 331 80 l 1,7,-1
 161 80 l 1,8,-1
 127 0 l 1,9,-1
 -53 0 l 1,10,-1
 203 600 l 1,11,-1
 473 600 l 1,12,-1
 517 0 l 1,5,-1
321 230 m 1,13,-1
 306 420 l 1,14,-1
 226 230 l 1,15,-1
 321 230 l 1,13,-1
EndSplineSet
Validated: 1
EndChar
